<?xml version="1.0" encoding="utf-8"?>
<!-- Generator: Adobe Illustrator 24.2.0, SVG Export Plug-In . SVG Version: 6.00 Build 0)  -->
<svg version="1.1" id="Layer_1" xmlns="http://www.w3.org/2000/svg" xmlns:xlink="http://www.w3.org/1999/xlink" x="0px" y="0px"
	 viewBox="0 0 280 145.8" style="enable-background:new 0 0 280 145.8;" xml:space="preserve">
<style type="text/css">
	.st0{fill:#FAC400;}
	.st1{fill:#3FB83F;}
	.st2{fill:#008894;}
	.st3{fill:#7F11AB;}
	.st4{fill:#F04235;}
	.st5{fill:#E01191;}
</style>
<path class="st0" d="M123,105.9c0.1-7-2.7-12.8-5.6-16.6c-2.9-3.8-6.4-7.1-14.6-11.9c8.8-1.6,13.2,1.6,15.1,3.1
	c1.9,1.4,2.9,3.6,2,4.9s-2.5,0.6-3.5,0.2s-1.3-1.8-1.1-2.4c0.2-0.6-0.1-0.7-0.4-0.3c-0.3,0.4-0.6,1.9,0.3,3c0.9,1.1,3.9,2.5,5.6,0.1
	c1.7-2.5-0.1-6.1-4.8-8.9c-4.7-2.8-13.5-3.6-19-2c-1.4-0.4-3.2-0.7-5.3-0.7l-2.4,12.4c2.5-0.6,4.7-0.7,5.6-0.7
	c1.6,0,1.8,0.4-0.1,0.6c-1.3,0.1-3.5,0.7-5.8,1.5l-2.5,12.7c0.7-0.4,1.3-0.8,2-1.1c5.5-2.3,8.5-0.9,11.2-0.1
	c2.7,0.9,5.8,4.9,5.8,10.9c0,7.7-3.8,13.3-7.5,15.4c-3.6,2.1-3.5,2.7,0.5,0.4c6.1-3.4,7.2-9,8.8-15.6c2.7,9.9-2.1,17.5-4.4,20.3
	c-2.3,2.8-6.3,6.2-10.8,8.4c-3.8,1.9-7.9,3-13.7,3.3l-0.6,3.1c5.7,0,11.5-1.2,16-2.9c5.3-2,9.8-5.7,13-8.9c3.2-3.2,7.1-10.4,8-13.5
	c1-3.1,2.1-9.2,0.9-14.3c-1.1-5-2.9-8.2-6.9-10.8s-6.9-3-8.9-3s-1.6-0.4,0.1-0.7c1.7-0.3,7.8-0.3,11.4,1.7c3.6,2,7.3,7.4,7.9,12.9
	c0.5,5.5-1.2,10.2-2.7,14.1c-1.5,3.9-4.5,7.9-5.1,8.7s-0.4,1,0.2,0.4c0.6-0.6,4.7-4.9,6.6-8.1C120.5,118,122.9,112.9,123,105.9z"/>
<path class="st1" d="M138.7,59.5h6.4l1.8,4.6h2.3l-6.2-15.2h-2.2l-5.8,15.2h2.1L138.7,59.5z M140.9,53.4c0.4-1,0.6-1.9,0.8-2.9
	c0.2,0.8,0.6,1.9,1.1,3.2l1.6,4.2h-5.2L140.9,53.4z"/>
<path class="st1" d="M164.4,57.3h2.3c0.5,0,0.9,0,1.1,0.1c0.3,0.1,0.6,0.2,0.9,0.4c0.3,0.2,0.6,0.5,1,1c0.4,0.5,0.9,1.2,1.4,2.1
	l2,3.2h2.5l-2.6-4.1c-0.5-0.8-1.1-1.5-1.7-2c-0.3-0.3-0.7-0.5-1.2-0.8c1.5-0.2,2.5-0.7,3.2-1.4c0.7-0.7,1.1-1.7,1.1-2.7
	c0-0.8-0.2-1.6-0.6-2.3c-0.4-0.7-1-1.2-1.7-1.5c-0.7-0.3-1.7-0.4-3.1-0.4h-6.8v15.2h2L164.4,57.3L164.4,57.3z M164.4,50.6h4.8
	c1.1,0,1.9,0.2,2.5,0.7c0.5,0.5,0.8,1.1,0.8,1.8c0,0.5-0.1,1-0.4,1.4c-0.3,0.4-0.7,0.7-1.2,0.9c-0.5,0.2-1.2,0.3-2.2,0.3h-4.3
	L164.4,50.6L164.4,50.6z"/>
<path class="st2" d="M192,63.4c1,0.7,2.4,1,4,1c1.6,0,2.9-0.4,4-1.3s1.9-2.1,2.3-3.8l-2-0.5c-0.3,1.3-0.8,2.3-1.6,2.9s-1.7,1-2.9,1
	c-0.9,0-1.8-0.2-2.6-0.7c-0.8-0.5-1.4-1.2-1.8-2.2c-0.4-1-0.6-2.1-0.6-3.4c0-1,0.2-2,0.5-2.9c0.3-0.9,0.9-1.7,1.7-2.3
	c0.8-0.6,1.8-0.8,2.9-0.8c1,0,1.9,0.3,2.5,0.8s1.2,1.3,1.5,2.4l2-0.5c-0.4-1.4-1.1-2.5-2.2-3.3c-1-0.8-2.3-1.2-3.8-1.2
	c-1.3,0-2.6,0.3-3.7,0.9c-1.1,0.6-2,1.5-2.6,2.7c-0.6,1.2-0.9,2.6-0.9,4.2c0,1.5,0.3,2.8,0.8,4.1C190.2,61.7,191,62.7,192,63.4z"/>
<polygon class="st2" points="220.3,64.1 222.4,64.1 222.4,50.7 227.4,50.7 227.4,48.9 215.3,48.9 215.3,50.7 220.3,50.7 "/>
<rect x="241.5" y="48.9" class="st3" width="2" height="15.2"/>
<path class="st3" d="M261.3,63.4c1,0.7,2.4,1,4,1c1.6,0,2.9-0.4,4-1.3c1.1-0.9,1.9-2.1,2.3-3.8l-2-0.5c-0.3,1.3-0.8,2.3-1.6,2.9
	s-1.7,1-2.9,1c-0.9,0-1.8-0.2-2.6-0.7c-0.8-0.5-1.4-1.2-1.8-2.2c-0.4-1-0.6-2.1-0.6-3.4c0-1,0.2-2,0.5-2.9s0.9-1.7,1.7-2.3
	c0.8-0.6,1.8-0.8,2.9-0.8c1,0,1.9,0.3,2.5,0.8s1.2,1.3,1.5,2.4l2-0.5c-0.4-1.4-1.1-2.5-2.2-3.3c-1-0.8-2.3-1.2-3.8-1.2
	c-1.3,0-2.6,0.3-3.7,0.9c-1.1,0.6-2,1.5-2.6,2.7c-0.6,1.2-0.9,2.6-0.9,4.2c0,1.5,0.3,2.8,0.8,4.1C259.5,61.7,260.3,62.7,261.3,63.4z
	"/>
<path class="st1" d="M141.5,73.4c-3.9,0-7.1,3.2-7.1,7.1v21.4h10.9V80.5h31.3v-7.1h-31.3L141.5,73.4L141.5,73.4z"/>
<rect x="151.8" y="84.4" class="st1" width="22.8" height="6.1"/>
<path class="st2" d="M216.6,73.4h-3.9h-20.3h-3.9c-3.9,0-7.1,3.2-7.1,7.1v14.4c0,3.9,3.2,7.1,7.1,7.1h3.9h20.3h3.9
	c3.9,0,7.1-3.2,7.1-7.1V80.5C223.7,76.6,220.6,73.4,216.6,73.4z M212.8,94.9h-20.3V80.5h20.3V94.9z"/>
<polygon class="st3" points="257.7,86.7 271.9,73.3 258.3,73.3 249.8,81.8 249.8,81.8 249.8,81.8 241.3,73.3 227.7,73.3 241.9,86.7 
	241.8,86.8 227,101.9 241.3,101.9 249.8,92.8 258.3,101.9 272.5,101.9 257.8,86.8 "/>
<polygon class="st3" points="271.3,95.3 272.6,95.3 272.6,98.8 273.4,98.8 273.4,95.3 274.8,95.3 274.8,94.6 271.3,94.6 "/>
<polygon class="st3" points="280,94.6 279.4,94.6 277.7,97.4 276,94.6 275.4,94.6 275.4,98.8 276.1,98.8 276.1,96.1 277.5,98.3 
	277.9,98.3 279.3,96 279.3,98.8 280,98.8 "/>
<g>
	<g>
		<path class="st4" d="M54.4,76.5c0.1,0.8-0.2,0.7-0.4,0.1c-0.2-0.6-0.8-2.1-1.5-3.7l-2.8,14.3c0.6,0,1,0,1.3-0.1
			c1.5-0.3,1.5,0,0,0.4c-0.4,0.1-0.9,0.2-1.4,0.3l-2.7,14c4-4.8,9.6-11.1,13.2-14.8c4.4-4.5,10.5-8.9,13.2-10.4
			c2.7-1.5,4.4-2.4,5.4-3.5c1.1-1.1,1.6-3.2,0.9-4.5c-0.7-1.3-3.1-2.1-4.4-1.7s-3.8,3-4.6,4.9s-2.6,4.5-3,5
			c-0.5,0.5-0.8,0.4-0.2-0.2c0.6-0.7,1.7-3.1,2.8-5.9c1.2-2.8,2.9-4.4,5.6-5.6c0.5-2.5-0.5-6.1-0.9-7.4c-0.4-1.3-1.7-4.2-1.6-5.7
			c0.4,0.4,1.5,0.8,3,0.8c1.5,0,2.4-1.1,2.8-2.2c0.4-0.9,0.2-2.6-0.5-3.8c-0.1-0.2-0.3-0.2-0.2,0c0.3,1.4,0.3,3.5-1.8,3.6
			c-2.3,0.1-2-2.7-1.6-4.9c0.4-2.2-0.9-5.3-3.1-6.8c-2.2-1.5-3.8-3.3-4.2-4.1c-0.4-0.8-0.3-2.3-0.3-2.8c0-0.4,0.3-0.6,0.4,0
			c0.1,0.6,0.3,1.3,0.9,2.3c1.1-0.2,2.1-0.1,3.2,0.6c1.1,0.7,1.8,1.1,4.1,1.8c2.3,0.7,3.6-0.5,5-1.4c1.5-0.9,1.5-2,0-3.3
			c-1.3-1.1-2.2-2.5-2.9-4.9c-0.7-2.4-1.4-5.4-3.2-8.3c2.6-1.1,2.8-3,3.3-4.9c0.5-1.8,3.6-4,2.8-6.3c-0.8-2.3-2.9-2.7-4.1-2.8
			c-1.3-0.1-0.5,0.4,0.6,0.8c1.2,0.4,1.3,3,0.6,4.2c-0.7,1.3-4.5,1-7.3,2.6c-1.1-1.2-1.5-2.6-0.7-4.9C71,5.2,70.1,3,69,1.3
			c-0.6-0.9-1.5-1.2-2.3-1.3l-0.2,0.9C67,1,67.7,1.4,68.2,2.2c0.8,1.3,0.6,3.7-0.5,4.7C67.1,7.3,66,8,64.9,9.1l-12,62
			C53.4,72.6,54.3,75.7,54.4,76.5z M73.9,24.7c0.6,1,0.9,2.5,0.3,3.8c-0.9-1.4-3.8-4-4.7-4.5C71.1,24.8,73.1,26.1,73.9,24.7z"/>
		<path class="st4" d="M75.2,142.8c-7.8,0.1-13-1.8-16.8-4.1c-3.8-2.3-4-5.2-2.7-7.9s5.8-3.3,6.5-1.9c0.7,1.4-0.3,2.5-1.9,2.7
			s-2.6,0.7,0.2,0.5c2.8-0.2,3.7-2.7,2.1-4.4c-1.6-1.7-6.5-0.9-8.8,2.5c-2.3,3.5-1.1,7.4,3.6,10.5c4.7,3,10.8,4.3,17.5,4.8
			c1,0.1,2,0.1,3,0.1l0.6-3.1C77.5,142.7,76.4,142.7,75.2,142.8z"/>
		<path class="st4" d="M66,3.5l0,0.2C66.1,3.8,66.1,3.7,66,3.5z"/>
		<path class="st4" d="M71.6,115.1c3.4-3.2,9.9-11.2,15.1-14.6l2.5-12.7c-1.7,0.6-3.4,1.3-4.7,2.1c-3.1,1.8-10.2,7.5-13.8,12.3
			c-3.6,4.8-9.8,11.9-15.9,15.7c-3.4,2.1-7.8,4-12,5.4l-1.6,8.2c5.8-1.2,11.7-3.2,15.4-5.1C62.3,123.3,67.8,118.7,71.6,115.1z"/>
		<path class="st4" d="M81.2,75.8c-6.6,2.1-14.5,7.6-19.8,12.4c-4.2,3.9-10.8,11.6-15,16.5L43,122c3.1-1.3,6.3-3,9.3-4.7
			c6.1-3.4,12.5-10.8,16.7-16.3c4.1-5.5,11-10.3,14.9-12.4c1.7-0.9,3.7-1.6,5.6-2l2.4-12.4C88.8,74.1,85.1,74.6,81.2,75.8z"/>
	</g>
</g>
<g>
	<g>
		<path class="st5" d="M1.1,82.3c1.6,2,4.8,3.7,7.9,2.8c3-0.9,3.6-2.3,5.5-5.2c1.9-2.9,3.9-2.8,8.7-1.9C28,79,31.3,81,33,82
			c1.7,1,5.1,2.5,8.2,3.8c2.4,1,6.4,1.4,8.7,1.3l2.8-14.3c-0.1-0.2-0.1-0.3-0.2-0.5c-0.8-1.8-2.5-4.1-4.7-5.8
			c-2.1-1.7-6.5-0.9-7.8,0.8c-1.3,1.8-2.4,4.9-0.2,7.7c2.2,2.8,5.9,5,8.4,6.4c-2-0.6-4.1-1-7.7-3.2c-3.7-2.3-5.2-7-7.9-10.8
			c-2.7-3.8-6.4-6.6-9.4-7.6c-3-1-6.4-0.5-8.8,0.7c-2.3,1.2-3.3,3.7-2.5,6.1c0.8,2.4,3.7,3.2,4.9,2.8c1.2-0.4,1.6-0.8-0.3-0.5
			c-1.9,0.3-3.6-2-3.3-3.9c0.3-1.9,3.2-4.3,7.3-3.1s7.5,5.7,10.5,11.3c-5.4-2-9.5-1.9-12.4-1.5c-2.9,0.4-5.7,2.5-6.9,4.8
			s-1.2,6.3-3.1,7.2c-1.9,0.9-5,0.2-6.9-1.8c-0.9-0.9-1.4-1.3-1.5-1.3l0,0.1C0.1,81,0.5,81.5,1.1,82.3z"/>
		<path class="st5" d="M62.3,14.7c-1.1-1.8-0.6-3.3,0.1-5.9c-2.6,3.5-2.6,7.1-0.9,10.1c-1.6-0.2-3.8,0.2-5.5,2.2
			c-1.8,2-1.5,4-1.7,6.4c-0.2,2.3-0.5,4.4-1.8,5.6c-1.3,1.2-4,0.3-4.4-0.8c-0.4-1.1,0.2-2.6,0.6-3.6c0.4-0.9,0.2-0.9-0.5-0.3
			s-1.9,3-0.9,5.4s2.9,3.2,5.8,2.8c-0.5,2-0.9,3.4-2.8,5.2c-1.9,1.8-5.4,3.8-6.6,5.6c-1.3,1.9-0.9,3.5-0.1,4.4
			c0.8,0.9,1.3,1.2,0.4-0.3c-0.9-1.4,0-2.5,0.9-3.7c0.9-1.2,3-1.9,5.2-3.3c-1.2,1.9-2.6,5.2-3.4,8.7c-0.8,3.5-0.5,7.2,1.6,11.6
			c2.4,1.3,4,4.9,4.5,6c0,0.1,0.1,0.2,0.1,0.3l12-62C63.8,10.3,62.7,12.1,62.3,14.7z"/>
		<path class="st5" d="M65.1,0.5c-0.5,0.7-0.2,1.9,0.4,2.8c0.2,0.3,0.4,0.5,0.5,0.5l0-0.2c0-0.1-0.1-0.2-0.2-0.3
			c-0.5-0.7-0.6-1.6-0.1-2c0.2-0.2,0.5-0.2,0.8-0.2L66.7,0C65.9-0.1,65.3,0.1,65.1,0.5z"/>
		<path class="st5" d="M42.8,123.2c-3.4,1.1-6.6,2-9,2.3c-5.2,0.7-5.8-0.1,0-0.8c2.9-0.3,6-1.3,9.2-2.7l3.4-17.3
			c-1.1,1.2-2,2.3-2.7,3.1c-3.4,3.8-8.2,7.3-9.4,7.9c-1.1,0.6-1.4,0.5-0.4-0.2c1-0.7,6.9-6,10.7-10.9c0.7-0.9,1.5-1.9,2.4-3l2.7-14
			c-1.8,0.3-4.6,0.3-8.8-0.9c-5.6-1.6-11.3-4.3-14.3-4.9c-3-0.7-5.8-0.6-8.9,0.2c-3,0.8-5.3,2.5-5.2,5.1c0,1,0.4,1,0.5,0.1
			c0.3-1.4,1.3-1.9,2.7-2.6c1.9-0.9,6.2-1.6,9.8-0.9c3.6,0.7,14.7,5.7,17.7,6.3c3,0.6,3.1,1-0.4,0.6c-3.5-0.4-11.1-3.7-17.4-4.1
			c-6.3-0.4-12.4,0.7-17.5,5.8c-5.1,5-6.3,11-6.4,18.1s4.5,15.1,10.4,18.5s12.6,4.2,19.9,3.8c2.7-0.1,5.9-0.6,9.2-1.3L42.8,123.2z
			 M21.5,99.2c-1.7,1.3-2.5,2.7-2.7,3c-0.2,0.3-0.6,0.3-0.2-0.2c0.3-0.5,0.9-2.1,2.9-3.8c2.6-2.3,6.2-4.1,13.9-2.3
			c6.4,1.6,8.3,0.8,10,0.5c1-0.2,1.5-0.6,1.9-0.7c0.3-0.2,0.5,0,0.3,0.3c-0.3,0.3-1.2,1.2-2.3,2c-1.7,1.1-6.2,0.5-11.2-0.7
			C26,95.4,22.9,98.1,21.5,99.2z"/>
	</g>
</g>
</svg>
