<?xml version="1.0" encoding="UTF-8"?>
<svg width="131px" height="28px" viewBox="0 0 131 28" version="1.1" xmlns="http://www.w3.org/2000/svg" xmlns:xlink="http://www.w3.org/1999/xlink">
    <!-- Generator: sketchtool 63.1 (101010) - https://sketch.com -->
    <title>144ADE66-503B-4998-922F-A916B56C0E77</title>
    <desc>Created with sketchtool.</desc>
    <g id="Diseño_final" stroke="none" stroke-width="1" fill="none" fill-rule="evenodd" opacity="0.979999959">
        <g id="02_InteriorPrograma_desktop-prueba" transform="translate(-63.000000, -26.000000)" fill="#FFFFFF">
            <g id="Header_desktop">
                <g id="logo_Sonoro">
                    <g transform="translate(63.000000, 26.000000)">
                        <path d="M16.5743058,0.709864585 C18.2481617,0.709864585 19.6887377,0.935368575 20.8974736,1.38580055 C22.1056336,1.83623253 23.0416335,2.47127251 23.7040335,3.29149647 C24.3664335,4.11172043 24.7379534,5.10647239 24.8194574,6.27632834 C24.9006734,7.44647228 24.6506895,8.75168823 24.0697935,10.1925522 L17.8642578,10.1925522 C17.4221778,10.1925522 17.0564178,10.0998162 16.7661138,9.91348017 C16.4752338,9.72772018 16.3882578,9.3907602 16.5048978,8.90231222 C16.5276498,8.80986422 16.5509778,8.72836023 16.5743058,8.65837623 C16.5973458,8.58868023 16.6206738,8.50746424 16.6440018,8.41444024 C16.7136978,8.32199224 16.7488338,8.21716025 16.7488338,8.10052025 C16.8882258,7.58960828 16.9343058,7.1653843 16.8882258,6.82813631 C16.8415698,6.49146433 16.5861138,6.32240833 16.1212818,6.32240833 C15.5398099,6.32240833 15.0755539,6.49780033 14.7264979,6.84656831 C14.3780179,7.19591229 14.0410579,7.77767227 13.7156179,8.59242423 C13.529282,9.08173621 13.6223059,9.53562419 13.9946899,9.95466417 C14.3662099,10.3737042 14.8658899,10.8221201 15.4937299,11.2993361 C16.1212818,11.7765521 16.7891538,12.3004241 17.4984978,12.87124 C18.2072657,13.441192 18.8109137,14.116264 19.3114577,14.896168 C19.8105617,15.6763599 20.1184337,16.5783759 20.2350737,17.6025038 C20.3508496,18.6266318 20.1305297,19.8255757 19.5726737,21.1996237 C19.1308817,22.3170636 18.6193937,23.2542156 18.0387857,24.0107915 C17.4576018,24.7673675 16.7543058,25.3785035 15.9294738,25.8439115 C15.1043539,26.3096074 14.1453139,26.6410954 13.05293,26.8389514 C11.960546,27.0368074 10.6824021,27.1361674 9.21849814,27.1361674 C7.54493022,27.1361674 6.10377828,26.9146954 4.89504234,26.4734794 C3.68659439,26.0325515 2.75145843,25.3989515 2.08848246,24.5732555 C1.42637049,23.7487116 1.05485051,22.7490636 0.973058512,21.5751757 C0.891842516,20.4018637 1.1421145,19.0825358 1.72272248,17.6180558 L7.8934102,17.6180558 C8.40461018,17.6180558 8.81155416,17.7525518 9.11395415,18.0195278 C9.41549013,18.2865038 9.41549013,18.7573838 9.11395415,19.4310157 C9.06701015,19.5243277 9.03792215,19.6055437 9.02669015,19.6752397 C9.01488215,19.7449357 9.00883415,19.8033997 9.00883415,19.8494797 C8.89277016,20.3145997 8.86397016,20.7094477 8.92214616,21.0348877 C8.97945815,21.3606157 9.22973014,21.5230477 9.67152212,21.5230477 C10.2524181,21.5230477 10.7175381,21.3488077 11.0660181,21.0000397 C11.414786,20.6512717 11.751458,20.0706637 12.077186,19.2567758 C12.262658,18.7922318 12.169634,18.3449678 11.798114,17.9146958 C11.426306,17.4847118 10.9266261,17.0316879 10.2990741,16.5553359 C9.67152212,16.0789839 9.00307415,15.5496399 8.29430618,14.9690319 C7.58525022,14.388136 6.98102624,13.71364 6.48163427,12.946696 C5.98166629,12.1794641 5.6735063,11.2788881 5.55773031,10.2443922 C5.44109031,9.2110482 5.6622743,8.00807226 6.22013028,6.63632832 C6.66134626,5.52061637 7.17283423,4.58548041 7.75401821,3.82976845 C8.33520218,3.07492048 9.03792215,2.46493651 9.86333011,1.99981653 C10.6881621,1.53469655 11.646914,1.20378456 12.739586,1.00592857 C13.8316819,0.80893658 15.1101139,0.709864585 16.5743058,0.709864585" id="Fill-32"></path>
                        <path d="M36.8996745,8.58879543 C37.0851465,8.17033145 37.0909065,7.81033147 36.9166665,7.50793148 C36.7424265,7.20639549 36.4463625,7.0549075 36.0281865,7.0549075 C35.4464266,7.0549075 35.0282506,7.1654995 34.7727946,7.38581949 C34.5167626,7.60729148 34.2725386,8.01941946 34.0404106,8.62335543 L29.6823948,19.4308429 C29.3339148,20.3147149 29.2351308,20.8838029 29.3860428,21.1392589 C29.5372428,21.3955789 29.8335948,21.5228749 30.2753868,21.5228749 C30.7862988,21.5228749 31.2050508,21.4128589 31.5304907,21.1919629 C31.8556427,20.9710669 32.1344267,20.5704589 32.3671307,19.9889869 L36.8996745,8.58879543 Z M37.9105545,0.709979785 C39.4671944,0.709979785 40.7922823,0.942107774 41.8849543,1.40693975 C42.9767622,1.87234773 43.8024582,2.5574997 44.3600262,3.46383566 C44.9178821,4.37045962 45.1909061,5.48041157 45.1796741,6.79340351 C45.1672901,8.10639545 44.8363782,9.59996339 44.1857862,11.2729553 C43.5809862,12.9004432 42.9830982,14.4167632 42.3901063,15.8227791 C41.7976903,17.229371 41.2104583,18.606299 40.6298503,19.9541389 C39.9786824,21.5349709 39.3338504,22.8015948 38.6947784,23.7540108 C38.0554185,24.7075787 37.3581705,25.4336267 36.6030345,25.9330187 C35.8476106,26.4332746 34.9991626,26.7578506 34.0579786,26.9093386 C33.1167947,27.0602506 32.0298827,27.1359946 30.7983948,27.1359946 L27.2770189,27.1359946 C26.277371,27.1359946 25.324955,26.9905546 24.4183311,26.7002506 C23.5122831,26.4096586 22.7798991,25.9157387 22.2220432,25.2182027 C21.6641872,24.5212427 21.3505552,23.5970508 21.2808592,22.4467788 C21.2111632,21.2962189 21.5132752,19.8616909 22.1871952,18.141467 L23.5122831,14.8291792 C23.9071311,13.8528592 24.3365391,12.7840912 24.801947,11.6217233 C25.266491,10.4599313 25.731323,9.3096594 26.196443,8.17033145 C26.637371,7.0549075 27.1839949,6.03826755 27.8345869,5.11983559 C28.4851789,4.20226763 29.2408908,3.41746766 30.1011468,2.76658769 C30.9608268,2.11599572 31.9138187,1.61084374 32.9598347,1.24997976 C34.0055626,0.889979777 35.1440266,0.709979785 36.3763785,0.709979785 L37.9105545,0.709979785 Z" id="Fill-34"></path>
                        <path d="M72.3200441,1.12806937 L61.8958846,26.7525802 L56.4224448,26.7525802 C55.8409729,26.7525802 55.3352449,26.5553002 54.9055489,26.1595882 C54.4755649,25.7647403 54.2025409,25.2653483 54.0864769,24.6605483 L52.343501,14.1666928 L47.2185412,26.7525802 L39.7576136,26.7525802 L50.1817731,1.12806937 L55.6552129,1.12806937 C56.2358208,1.12806937 56.7415488,1.31987736 57.1718208,1.70320534 C57.6018048,2.08653332 57.8745408,2.5922613 57.9911808,3.21981327 L59.7341567,13.7136688 L64.8594045,1.12806937 L72.3200441,1.12806937 Z" id="Fill-36"></path>
                        <path d="M81.5236597,8.58879543 C81.7094197,8.17033145 81.7154677,7.81033147 81.5412277,7.50793148 C81.3666997,7.20639549 81.0703477,7.0549075 80.6521718,7.0549075 C80.0706998,7.0549075 79.6525238,7.1654995 79.3967798,7.38581949 C79.1410358,7.60729148 78.8970998,8.01941946 78.6649718,8.62335543 L74.306956,19.4308429 C73.958188,20.3147149 73.8591161,20.8838029 74.010604,21.1392589 C74.161516,21.3955789 74.457868,21.5228749 74.89966,21.5228749 C75.410572,21.5228749 75.829036,21.4128589 76.154476,21.1919629 C76.4796279,20.9710669 76.7589879,20.5704589 76.9914039,19.9889869 L81.5236597,8.58879543 Z M82.5345397,0.709979785 C84.0914676,0.709979785 85.4162675,0.942107774 86.5092275,1.40693975 C87.6013234,1.87234773 88.4264434,2.5574997 88.9842994,3.46383566 C89.5421554,4.37045962 89.8148913,5.48041157 89.8036593,6.79340351 C89.7918513,8.10639545 89.4603634,9.59996339 88.8100594,11.2729553 C88.2052594,12.9004432 87.6070834,14.4167632 87.0143795,15.8227791 C86.4216755,17.229371 85.8347315,18.606299 85.2538355,19.9541389 C84.6029556,21.5349709 83.9578356,22.8015948 83.3190516,23.7540108 C82.6796917,24.7075787 81.9821557,25.4336267 81.2273077,25.9330187 C80.4715958,26.4332746 79.6234358,26.7578506 78.6822518,26.9093386 C77.7407799,27.0602506 76.6541559,27.1359946 75.42238,27.1359946 L71.9015801,27.1359946 C70.9019322,27.1359946 69.9492282,26.9905546 69.0426043,26.7002506 C68.1362683,26.4096586 67.4041723,25.9157387 66.8460284,25.2182027 C66.2884604,24.5212427 65.9745404,23.5970508 65.9051324,22.4467788 C65.8351484,21.2962189 66.1372604,19.8616909 66.8111804,18.141467 L68.1362683,14.8291792 C68.5311163,13.8528592 68.9611003,12.7840912 69.4259323,11.6217233 C69.8904762,10.4599313 70.3555962,9.3096594 70.8207162,8.17033145 C71.2619322,7.0549075 71.8085561,6.03826755 72.4591481,5.11983559 C73.1094521,4.20226763 73.8648761,3.41746766 74.72542,2.76658769 C75.584812,2.11599572 76.5380919,1.61084374 77.5838199,1.24997976 C78.6301238,0.889979777 79.7685878,0.709979785 81.0009397,0.709979785 L82.5345397,0.709979785 Z" id="Fill-38"></path>
                        <path d="M102.09259,8.58879543 C102.254734,8.17033145 102.24955,7.81033147 102.075022,7.50793148 C101.900782,7.20639549 101.61595,7.0549075 101.221102,7.0549075 L99.8266061,7.0549075 L98.1878862,11.0641553 L99.6172301,11.0641553 C100.012366,11.0641553 100.413262,10.9129553 100.820206,10.6108433 C101.226286,10.3090194 101.522638,9.94844337 101.708974,9.52997939 L102.09259,8.58879543 Z M105.369742,1.16300376 C106.694542,1.27935576 107.75179,1.59327575 108.54235,2.10418772 C109.332334,2.6159637 109.913518,3.24927567 110.285326,4.00441164 C110.656846,4.7598356 110.819854,5.58495557 110.773486,6.47948353 C110.726542,7.37458749 110.52955,8.26335545 110.180782,9.14665141 C109.808686,10.0763154 109.367182,10.8723473 108.855982,11.5347473 C108.344494,12.1971473 107.803918,12.7722832 107.23483,13.2604432 C106.665166,13.7486032 106.07851,14.1494992 105.473998,14.4631312 C104.869774,14.7770512 104.289166,15.0506511 103.731022,15.2822031 C104.800078,15.6309711 105.46219,16.3751631 105.71851,17.513627 C105.973966,18.652667 105.799438,19.9774669 105.195214,21.4880269 L103.06891,26.7523786 L96.5491662,26.7523786 C96.2470543,26.7523786 95.9507023,26.6305546 95.6603983,26.3863306 C95.3692303,26.1423946 95.3171023,25.7763467 95.5034383,25.2881867 L97.8391182,19.5359629 C98.0015502,19.117499 97.9787982,18.757499 97.7694222,18.455099 C97.5606222,18.153275 97.2579342,18.001787 96.8630862,18.001787 L95.3640463,18.001787 L91.8426704,26.7523786 L84.1380948,26.7523786 L94.4228623,1.12815577 L105.369742,1.12815577 L105.369742,1.16300376 Z" id="Fill-40"></path>
                        <path d="M122.277904,8.58879543 L117.745648,19.9889869 C117.513233,20.5704589 117.233873,20.9710669 116.908721,21.1919629 C116.583281,21.4128589 116.164817,21.5228749 115.653905,21.5228749 C115.211825,21.5228749 114.915761,21.3955789 114.764849,21.1392589 C114.613361,20.8838029 114.712433,20.3147149 115.061201,19.4308429 L119.418928,8.62335543 C119.651344,8.01941946 119.89528,7.60729148 120.151024,7.38581949 C120.406768,7.1654995 120.824944,7.0549075 121.406416,7.0549075 C121.824592,7.0549075 122.120944,7.20639549 122.295184,7.50793148 C122.469712,7.81033147 122.463664,8.17033145 122.277904,8.58879543 M129.738256,3.46383566 C129.180688,2.5574997 128.355568,1.87234773 127.263472,1.40693975 C126.65896,1.15004377 125.981008,0.966587773 125.235088,0.851963778 L123.464464,4.64607561 C123.316144,4.96316359 123.002224,5.14921159 122.673904,5.14921159 C122.550352,5.14921159 122.425072,5.12300359 122.306128,5.06713159 C121.86952,4.8638036 121.681168,4.34540362 121.884784,3.90908364 L123.376624,0.711419785 C123.34696,0.711131785 123.318736,0.709979785 123.288784,0.709979785 L121.755184,0.709979785 C120.522832,0.709979785 119.38408,0.889979777 118.338064,1.24997976 C117.292337,1.61084374 116.339057,2.11599572 115.479665,2.76658769 C114.619121,3.41746766 113.863697,4.20226763 113.213393,5.11983559 C112.562801,6.03826755 112.016177,7.0549075 111.574961,8.17033145 C111.109841,9.3096594 110.644721,10.4599313 110.180177,11.6217233 C109.715057,12.7840912 109.285361,13.8528592 108.890513,14.8291792 L107.565425,18.141467 C106.891505,19.8616909 106.589393,21.2962189 106.659377,22.4467788 C106.728785,23.5970508 107.042705,24.5212427 107.600273,25.2182027 C108.158129,25.9157387 108.890513,26.4096586 109.796849,26.7002506 C110.703473,26.9905546 111.655889,27.1359946 112.655537,27.1359946 L116.176625,27.1359946 C117.408401,27.1359946 118.495024,27.0602506 119.436496,26.9093386 C120.37768,26.7578506 121.22584,26.4332746 121.981552,25.9330187 C122.7364,25.4336267 123.433936,24.7075787 124.073008,23.7540108 C124.71208,22.8015948 125.3572,21.5349709 126.00808,19.9541389 C126.588976,18.606299 127.17592,17.229371 127.768624,15.8227791 C128.361328,14.4167632 128.959216,12.9004432 129.564304,11.2729553 C130.214608,9.59996339 130.545808,8.10639545 130.557904,6.79340351 C130.569136,5.48041157 130.2964,4.37045962 129.738256,3.46383566" id="Fill-42"></path>
                    </g>
                </g>
            </g>
        </g>
    </g>
</svg>